<svg xmlns="http://www.w3.org/2000/svg" width="56" height="49" viewBox="0 0 56 49" fill="none">
    <script xmlns="" />
    <path
        d="M27.3248 48.2564C26.5692 48.2642 25.8282 48.045 25.1957 47.6264L14.1287 40.0838L16.2451 36.8867L27.2656 44.3972H27.365L40.6585 35.5218C40.7607 35.4047 40.8334 35.2642 40.8702 35.1125V25.0414H44.6798V35.1425C44.6569 35.8504 44.4731 36.5434 44.1427 37.1677C43.8124 37.792 43.3444 38.3308 42.775 38.7424L29.4138 47.6564C28.7897 48.0573 28.0639 48.2658 27.3248 48.2564Z"
        fill="#60BEEC" />
    <path d="M13.6439 25.1122H9.8385V32.1276H13.6439V25.1122Z" fill="#60BEEC" />
    <path
        d="M27.2761 36.2996C26.5484 36.3083 25.8313 36.122 25.1977 35.7596L1.3917 21.4393C0.981839 21.2178 0.637241 20.8903 0.392957 20.4901C0.148673 20.09 0.0134197 19.6315 0.000948129 19.1613C-0.0115234 18.691 0.0992319 18.2258 0.321954 17.813C0.544676 17.4002 0.871418 17.0544 1.26895 16.8109L25.149 0.626434C25.7783 0.22098 26.508 0.00384172 27.254 5.05082e-05C27.9999 -0.00374071 28.7317 0.20597 29.365 0.605006L53.7806 16.8109C54.1828 17.0504 54.5143 17.3946 54.7407 17.8077C54.967 18.2208 55.0799 18.6878 55.0676 19.1601C55.0553 19.6323 54.9182 20.0926 54.6706 20.4931C54.4231 20.8936 54.0741 21.2196 53.6599 21.4372L29.3206 35.7939C28.6979 36.1452 27.9952 36.3255 27.2824 36.3167M27.1131 32.4319C27.2143 32.4533 27.3188 32.4533 27.42 32.4319L50.1826 19.0287L27.3247 3.85776C27.2889 3.85348 27.2527 3.85348 27.2168 3.85776L4.83519 19.0287L27.1131 32.4319Z"
        fill="#60BEEC" />
    <path
        d="M12.2764 27.1542C11.5357 27.6428 10.5028 27.2549 9.96526 26.2971C9.42768 25.3393 9.59699 24.1543 10.3378 23.6615L22.59 15.5853C23.3307 15.0967 24.3657 15.4867 24.899 16.4424C25.4324 17.3981 25.2694 18.5852 24.5287 19.078L12.2764 27.1542Z"
        fill="#60BEEC" />
    <path
        d="M27.2423 23.3569C23.9935 23.3569 21.3479 20.5992 21.3479 17.2114C21.3479 13.8237 23.9935 11.0659 27.2423 11.0659C30.491 11.0659 33.1408 13.8237 33.1408 17.2114C33.1408 20.5992 30.4995 23.3569 27.2423 23.3569ZM27.2423 14.9186C26.0909 14.9186 25.1533 15.9472 25.1533 17.2114C25.1533 18.4757 26.0909 19.4999 27.2423 19.4999C28.3936 19.4999 29.3333 18.4714 29.3333 17.2071C29.3333 15.9429 28.3957 14.9143 27.2423 14.9143"
        fill="#60BEEC" />
    <path
        d="M11.7411 42.49C8.49019 42.49 5.8446 39.7344 5.8446 36.3445C5.8446 32.9546 8.49019 30.2011 11.7411 30.2011C14.992 30.2011 17.6354 32.9568 17.6354 36.3445C17.6354 39.7323 14.992 42.49 11.7411 42.49ZM11.7411 34.0539C10.5876 34.0539 9.65001 35.0824 9.65001 36.3445C9.65001 37.6066 10.5876 38.6394 11.7411 38.6394C12.8945 38.6394 13.8321 37.6088 13.8321 36.3445C13.8321 35.0803 12.8945 34.0539 11.7411 34.0539Z"
        fill="#60BEEC" />
    <script xmlns="" />
</svg>